<svg xmlns="http://www.w3.org/2000/svg" version="1.1" xmlns:xlink="http://www.w3.org/1999/xlink" xmlns:svgjs="http://svgjs.com/svgjs" width="512" height="512"><svg xmlns="http://www.w3.org/2000/svg" width="512" height="512" viewBox="0 0 512 512" version="1.1">
	<path d="M 0 206.342 L 0 412.684 18.160 413.342 C 28.148 413.704, 58.073 414, 84.660 414 C 130.912 414, 133 414.079, 133 415.838 C 133 416.849, 129.240 428.211, 124.645 441.088 C 120.049 453.965, 115.987 465.752, 115.618 467.281 C 115.037 469.685, 115.663 470.821, 120.221 475.640 C 123.122 478.708, 127.747 482.406, 130.498 483.859 L 135.500 486.500 251.500 486.773 C 330.368 486.958, 369.091 486.706, 372.469 485.986 C 378 484.807, 384.354 481.042, 390.735 475.162 L 394.969 471.259 393.372 465.880 C 392.493 462.921, 388.675 450.893, 384.887 439.152 C 381.099 427.411, 378 416.948, 378 415.902 C 378 414.276, 378.763 413.998, 383.250 413.984 C 467.823 413.724, 510.750 413.282, 511.750 412.660 C 512.743 412.042, 513 369.612, 513 205.941 L 513 0 256.500 0 L 0 0 0 206.342 M 0.491 207 C 0.491 320.575, 0.607 367.037, 0.750 310.250 C 0.893 253.462, 0.893 160.537, 0.750 103.750 C 0.607 46.962, 0.491 93.425, 0.491 207 M 294.753 22.427 C 315.623 33.301, 332.326 50.719, 343.736 73.508 C 350.552 87.122, 355.033 102.109, 358.983 124.500 C 361.885 140.951, 364.414 149.889, 368.402 157.791 C 372.762 166.431, 377.963 172.252, 390.113 182.092 C 400.667 190.638, 404.809 195.724, 407.376 203.285 C 411.246 214.688, 408.203 225.091, 398.055 235.140 L 391.350 241.780 398.374 245.034 C 404.193 247.730, 405.856 248.115, 408.067 247.281 C 411.825 245.862, 413.688 247.236, 416.439 253.458 C 417.730 256.378, 420.773 261.205, 423.201 264.186 C 429.438 271.843, 434.234 280.077, 438.529 290.500 C 444.656 305.370, 446.629 308.649, 451.444 311.961 C 459.390 317.429, 460.302 320.296, 457.423 330.765 L 455.845 336.500 460.361 346 C 466.913 359.786, 466.215 359.518, 470.964 350.072 C 486.768 318.640, 494.697 287.812, 495.730 253.788 C 496.581 225.728, 493.259 203.036, 484.297 175.700 C 468.784 128.387, 435.674 86.129, 391.718 57.544 C 362.399 38.476, 319.965 22.095, 291 18.661 C 286.509 18.129, 286.517 18.136, 294.753 22.427 M 198.500 21.967 C 162.210 31.455, 125.223 49.516, 99.500 70.311 C 59.895 102.328, 30.639 149.368, 20.418 197.462 C 9.390 249.352, 15.501 298.871, 39.056 348.500 L 43.327 357.500 48.698 346.500 C 53.255 337.164, 53.988 334.895, 53.539 331.500 C 51.537 316.345, 51.440 317.338, 55.274 313.772 C 57.209 311.972, 60.082 309.340, 61.657 307.922 C 63.499 306.266, 65.894 301.799, 68.361 295.422 C 73.053 283.293, 77.126 275.802, 84.344 266.025 C 87.379 261.914, 90.158 256.972, 90.520 255.043 C 91.748 248.495, 92.588 247.756, 97.960 248.495 C 101.993 249.049, 103.620 248.723, 108.130 246.457 C 111.084 244.973, 113.677 243.599, 113.892 243.404 C 114.108 243.208, 112.130 240.450, 109.497 237.274 C 101.832 228.030, 99.495 222.108, 99.524 212 C 99.556 200.638, 102.112 195.669, 112.721 186.342 C 137.450 164.600, 140.974 158.304, 145.026 128.638 C 148.462 103.480, 152.926 87.191, 160.549 72 C 171.235 50.705, 188.511 32.785, 207.750 23.038 C 211.188 21.297, 214 19.676, 214 19.436 C 214 18.423, 208.818 19.269, 198.500 21.967 M 241 33.934 C 217.572 38.275, 198.616 50.793, 185.057 70.878 C 174.311 86.797, 166.925 111.197, 167.045 130.381 C 167.096 138.605, 166.698 138.842, 175.249 125.500 C 182.386 114.365, 196.340 100.855, 207.785 94 C 212.835 90.975, 221.362 85.689, 226.734 82.254 C 232.105 78.819, 237.850 75.807, 239.500 75.562 C 241.150 75.317, 247.230 74.587, 253.010 73.940 L 263.520 72.764 273.510 78.516 C 289.453 87.695, 300.841 95.869, 310.406 104.999 C 319.429 113.611, 329.410 126.030, 333.265 133.440 L 335.378 137.500 336.217 133 C 337.361 126.867, 335.605 111.308, 332.600 100.953 C 323.001 67.870, 300.682 44.024, 271.821 36.015 C 263.609 33.736, 247.824 32.670, 241 33.934 M 239 95.513 C 215.230 109.397, 209.241 113.269, 202.103 119.372 C 190.210 129.540, 178.400 144.378, 171.755 157.500 C 163.282 174.233, 163.999 191.767, 173.819 207.922 C 178.083 214.936, 186.607 224.872, 191.113 228.081 L 194.231 230.301 192.978 227.901 C 192.288 226.580, 188.796 221.022, 185.218 215.550 C 175.933 201.348, 173.796 196.140, 173.229 186.329 C 172.417 172.263, 176.956 161.553, 190.470 145.653 C 198.554 136.142, 213.085 123.725, 220.925 119.628 C 244.683 107.214, 274.434 108.955, 294.193 123.915 C 311.271 136.846, 329.607 163.156, 333.029 179.642 C 335.936 193.642, 332.921 203.177, 318.563 225.395 L 314.753 231.290 318.171 228.683 C 322.602 225.303, 330.907 214.989, 334.829 207.993 C 339.173 200.245, 341.358 191.062, 340.514 184.099 C 338.992 171.541, 331.476 154.491, 320.961 139.744 C 313.484 129.258, 296.619 112.688, 285.317 104.724 C 277.010 98.869, 255.740 87.938, 253 88.115 C 252.175 88.169, 245.875 91.498, 239 95.513 M 248.500 104.923 C 249.600 105.438, 251.861 105.891, 253.525 105.930 C 256.864 106.007, 280.039 111.407, 284 113.030 L 286.500 114.055 284.098 112.159 C 279.055 108.177, 267.083 104.805, 256.500 104.384 C 249.810 104.118, 247.162 104.297, 248.500 104.923 M 240.621 127.603 C 231.373 129.273, 219.257 134.296, 210.102 140.255 L 203.581 144.500 209.040 145.097 C 215.653 145.820, 219 146.819, 219 148.067 C 219 148.580, 217.537 149.004, 215.750 149.010 C 212.385 149.020, 202.738 152.997, 201.595 154.846 C 201.236 155.427, 203.005 155.196, 205.552 154.328 C 217.460 150.270, 232.265 159.159, 236.037 172.631 C 237.111 176.468, 237.004 177.558, 235.089 182.230 C 231.940 189.913, 226.641 196.632, 221.770 199.117 C 210.132 205.055, 196.682 198.966, 189.939 184.707 C 187.683 179.937, 187.060 179.237, 186.536 180.887 C 185.656 183.658, 187.758 194.616, 189.999 198.946 C 192.218 203.233, 200.296 211.180, 204.663 213.373 C 208.175 215.136, 208.151 215.063, 211.999 236.500 C 213.184 243.100, 214.456 248.759, 214.827 249.076 C 217.893 251.698, 247.335 273.166, 250.324 274.960 C 255.096 277.823, 255.068 277.835, 270.520 266.342 C 277.109 261.441, 285.265 255.502, 288.645 253.144 L 294.791 248.857 295.979 240.678 C 296.632 236.180, 298.053 228.635, 299.136 223.910 C 300.941 216.036, 301.372 215.193, 304.303 213.792 C 306.061 212.952, 309.849 210.151, 312.719 207.567 C 322.760 198.530, 327.225 184.059, 323.416 172.892 L 321.577 167.500 320.860 173.649 C 319.140 188.407, 307.374 201.350, 295.601 201.438 C 289.442 201.483, 284.502 199.224, 278.921 193.807 C 271.308 186.419, 269.177 177.613, 272.976 169.244 C 275.996 162.589, 279.560 158.557, 285.075 155.556 C 289.575 153.107, 290.980 152.833, 297.329 153.172 C 301.407 153.389, 305.968 154.297, 307.904 155.277 C 309.776 156.225, 311.491 157, 311.716 157 C 313.166 157, 304.603 147.038, 300.440 143.883 C 292.145 137.594, 275.036 130.737, 259.792 127.591 C 250.830 125.741, 250.927 125.741, 240.621 127.603 M 294.315 160.016 C 293.114 160.495, 291.651 161.783, 291.065 162.878 C 287.193 170.113, 296.295 177.705, 302 172 C 307.290 166.710, 301.230 157.260, 294.315 160.016 M 250.665 216.125 C 246.420 223.277, 246.359 223.587, 248.934 224.965 C 251.900 226.552, 257.238 226.157, 259.838 224.157 L 262.176 222.359 258.253 216.154 L 254.330 209.950 250.665 216.125 M 118.048 224.101 C 117.977 226.475, 122.738 234.971, 126.391 238.987 C 136.570 250.181, 157.208 268.831, 165.320 274.168 C 174.876 280.454, 187.888 287.445, 188.638 286.695 C 189.030 286.303, 179.117 278.979, 158.099 264.132 C 139.386 250.913, 126.139 238.084, 121.079 228.280 C 119.439 225.101, 118.075 223.220, 118.048 224.101 M 285.627 225.490 C 282.422 226.792, 278.095 228.146, 276.011 228.498 C 272.810 229.039, 272.130 229.602, 271.625 232.127 C 271.040 235.049, 270.896 235.114, 265.263 235.002 C 262.093 234.939, 257.802 235.188, 255.728 235.556 C 253.491 235.952, 250.767 235.732, 249.036 235.015 C 246.830 234.101, 245.286 234.081, 242.711 234.930 C 238.408 236.350, 236.159 235.499, 235.337 232.140 C 234.552 228.928, 233.342 228.035, 229.746 228.015 C 228.232 228.007, 225.314 227.100, 223.261 226 C 217.173 222.737, 216.182 223.180, 217.099 228.750 C 217.529 231.363, 217.908 234.063, 217.940 234.750 C 217.979 235.565, 219.653 236.003, 222.750 236.009 C 226.998 236.017, 228.117 236.546, 233.331 241.009 C 236.538 243.754, 239.521 246, 239.959 246 C 240.397 246, 241.373 245.143, 242.128 244.096 C 243.281 242.495, 245.131 242.121, 253.733 241.749 C 262.755 241.358, 264.165 241.525, 265.638 243.153 C 268.074 245.844, 269.304 245.503, 275.561 240.407 C 280.362 236.497, 281.667 235.900, 284.350 236.391 C 286.082 236.708, 288.073 236.604, 288.774 236.160 C 289.850 235.478, 292.454 224.121, 291.706 223.372 C 291.568 223.234, 288.832 224.187, 285.627 225.490 M 387.080 228.776 C 381.675 237.587, 370.566 248.484, 357.008 258.272 C 334.020 274.869, 318.895 286.465, 319.828 286.776 C 321.135 287.212, 331.559 282.478, 337.497 278.752 C 356.200 267.017, 382.277 241.111, 389.433 227.157 C 392.200 221.761, 390.786 222.734, 387.080 228.776 M 109.131 260.734 L 101.762 263.246 102.377 267.735 C 103.403 275.219, 109.820 292.987, 114.753 302 C 117.311 306.675, 121.349 314.325, 123.727 319 C 126.104 323.675, 127.827 326.375, 127.557 325 C 127.286 323.625, 126.338 316.227, 125.451 308.559 C 124.564 300.892, 122.750 290.327, 121.419 285.082 C 118.568 273.841, 118.581 274, 120.490 274 C 123.320 274, 138.389 307.915, 144.039 327 C 145.260 331.125, 146.603 334.879, 147.023 335.343 C 147.443 335.807, 148.115 333.782, 148.515 330.843 C 148.916 327.904, 150.764 319.942, 152.622 313.150 C 154.480 306.357, 156 300.230, 156 299.534 C 156 298.838, 151.838 294.549, 146.750 290.003 C 138.180 282.344, 128.499 272.332, 120 262.337 L 116.500 258.222 109.131 260.734 M 385.500 264.131 C 378.637 272.391, 365.156 285.094, 359.532 288.600 C 355.402 291.174, 354.926 291.837, 355.295 294.500 C 355.756 297.823, 365.735 332.068, 366.451 332.785 C 366.700 333.033, 367.200 331.945, 367.564 330.368 C 368.555 326.072, 387.934 277.469, 389.505 275.342 C 390.431 274.088, 391.195 273.825, 391.900 274.518 C 392.613 275.218, 392.340 278.490, 391.025 285.018 C 388.936 295.383, 386.993 311.451, 387.011 318.211 L 387.023 322.500 390.657 316 C 398.325 302.284, 407 276.336, 407 267.117 L 407 262.394 400.179 260.197 C 396.428 258.989, 392.715 258.025, 391.929 258.056 C 391.143 258.087, 388.250 260.821, 385.500 264.131 M 415.025 289 C 414.982 299.148, 414.106 302.719, 408.816 314.314 C 406.605 319.162, 405.018 323.351, 405.289 323.623 C 406.001 324.334, 413.082 321.230, 415.351 319.212 C 420.315 314.797, 421.660 302.196, 418.478 289.911 C 415.851 279.770, 415.065 279.562, 415.025 289 M 92.703 289.111 C 91.752 293.175, 90.981 299.650, 90.989 303.500 C 91.009 313.222, 92.906 316.654, 100.487 320.679 C 103.780 322.428, 106.622 323.711, 106.802 323.532 C 106.981 323.352, 105.562 320.094, 103.647 316.293 C 99.442 307.943, 97.078 300.136, 95.565 289.611 L 94.431 281.721 92.703 289.111 M 157.414 298.250 C 156.934 301.688, 156.598 308.100, 156.667 312.500 C 156.806 321.441, 158.899 341.221, 159.870 342.784 C 160.498 343.793, 191.035 353.301, 205.675 357.045 C 211.737 358.595, 213.543 358.747, 214.171 357.757 C 214.610 357.066, 214.976 353.034, 214.985 348.797 L 215 341.094 205.945 336.418 C 195.784 331.170, 185.085 321.821, 175.437 309.762 C 169.110 301.854, 159.951 292, 158.927 292 C 158.574 292, 157.893 294.813, 157.414 298.250 M 346.045 295.578 C 343.867 297.546, 338.805 303.508, 334.796 308.828 C 321.345 326.677, 312.918 334.017, 299.707 339.391 L 295.915 340.934 296.207 348.717 C 296.488 356.186, 296.601 356.511, 299 356.785 C 301.376 357.055, 345.726 344.155, 351 341.660 C 353.185 340.626, 353.595 339.596, 354.254 333.488 C 356.451 313.115, 355 292, 351.403 292 C 350.635 292, 348.224 293.610, 346.045 295.578 M 288.478 298.454 C 285.495 305.199, 285.437 306, 287.927 306 C 289.216 306, 290.905 304.162, 293.034 300.441 C 294.783 297.383, 296.054 294.739, 295.857 294.565 C 295.661 294.391, 294.478 293.934, 293.228 293.550 C 291.210 292.929, 290.679 293.477, 288.478 298.454 M 213.478 295.036 C 212.479 296.652, 218.931 306, 221.045 306 C 224.115 306, 224.048 304.574, 220.726 299.172 C 217.697 294.247, 214.938 292.673, 213.478 295.036 M 73.613 302.500 C 73.146 303.600, 72.554 308.775, 72.297 314 C 71.832 323.451, 71.848 323.530, 75.337 329.242 L 78.844 334.983 72.325 341.242 C 66.484 346.849, 52 364.669, 52 366.248 C 52 367.064, 63.374 363.894, 79 358.723 C 89.370 355.291, 93.288 354.493, 101.994 354.043 L 112.487 353.500 100.225 343.183 C 82.626 328.375, 76.634 319.653, 75.166 306.709 C 74.632 302.002, 74.256 300.984, 73.613 302.500 M 223.384 309.765 C 222.638 310.257, 222.141 317.943, 221.884 332.982 L 221.500 355.464 224.500 356.982 L 227.500 358.500 224.335 358.807 C 220.718 359.158, 220.438 359.647, 219.488 367.252 C 218.867 372.221, 219.011 372.935, 220.830 373.909 C 223.475 375.324, 229.687 375.316, 230.565 373.896 C 231.910 371.718, 232.305 360.306, 231.061 359.538 C 230.180 358.993, 230.295 358.331, 231.506 356.993 C 233.023 355.317, 232.991 354.434, 231.069 344.843 C 229.929 339.154, 228.596 329.249, 228.107 322.831 C 227.071 309.227, 226.520 307.701, 223.384 309.765 M 281.636 314.640 C 281.286 317.191, 281 322.395, 281 326.203 C 281 330.011, 280.271 337.808, 279.380 343.529 C 278.489 349.250, 278.025 354.622, 278.348 355.466 C 279.093 357.405, 285.879 357.540, 288.441 355.667 C 290.007 354.522, 290.174 353.426, 289.627 347.917 C 289.276 344.388, 288.707 334.413, 288.363 325.750 L 287.736 310 285.004 310 C 282.512 310, 282.216 310.407, 281.636 314.640 M 435.794 314.792 C 434.707 326.107, 426.371 337.473, 406.500 354.733 C 402.650 358.077, 399.822 361.140, 400.216 361.539 C 400.610 361.939, 408.035 361.274, 416.716 360.063 C 429.220 358.318, 434.006 358.046, 439.750 358.750 C 443.738 359.239, 447 359.309, 447 358.906 C 447 358.503, 444.333 354.576, 441.074 350.180 L 435.147 342.187 437.550 336.344 C 440.218 329.855, 440.782 320.638, 438.864 314.899 C 437.067 309.525, 436.303 309.499, 435.794 314.792 M 280.200 359.200 C 278.720 360.680, 278.698 362.493, 280.083 368.951 C 281.070 373.552, 281.413 374, 283.958 374 C 285.494 374, 288.204 373.709, 289.982 373.354 L 293.214 372.707 292.805 366.285 C 292.541 362.133, 291.885 359.539, 290.948 358.947 C 288.854 357.622, 281.607 357.793, 280.200 359.200 M 92.450 368.892 C 91.927 369.383, 85.955 372.150, 79.177 375.040 C 67.047 380.212, 56.821 386.045, 54.128 389.327 C 53.373 390.247, 53.083 391, 53.483 391 C 54.552 391, 64.349 388.468, 83 383.371 C 108.288 376.461, 113 375.010, 113 374.132 C 113 372.911, 108.759 371.220, 101.440 369.522 C 93.744 367.738, 93.684 367.733, 92.450 368.892 M 409.332 374.902 C 405.940 375.231, 402.928 375.737, 402.639 376.026 C 402.350 376.316, 406.711 379.344, 412.329 382.755 L 422.545 388.956 435.193 388.060 C 444.359 387.410, 449.151 386.584, 452.598 385.059 C 455.499 383.776, 456.993 382.598, 456.428 382.039 C 455.917 381.535, 450.550 379.520, 444.500 377.562 C 432.940 373.820, 425.957 373.292, 409.332 374.902 M 87 392.897 L 83.500 393.564 88.390 394.282 C 96.841 395.523, 111.227 395.181, 110.752 393.750 C 110.288 392.351, 93.105 391.735, 87 392.897 M 151.330 396.417 C 148.486 397.746, 145.716 399.662, 145.174 400.674 C 144.360 402.196, 129.583 445.806, 125.276 459.401 C 124.069 463.209, 124.122 463.379, 127.498 466.563 C 129.400 468.357, 133.329 470.652, 136.228 471.662 C 141.224 473.404, 147.409 473.500, 254.500 473.500 L 367.500 473.500 373.167 471.209 C 380.340 468.310, 384 465.443, 384 462.725 C 384 460.863, 369.857 412.197, 366.681 403.128 C 365.804 400.624, 364.214 399.081, 360.500 397.128 L 355.500 394.500 256 394.250 L 156.500 393.999 151.330 396.417 M 159.026 399.993 C 156.758 400.529, 155.736 403.079, 146.790 430.539 C 141.421 447.018, 137.022 461.497, 137.014 462.715 C 137.006 463.933, 137.908 465.416, 139.019 466.010 C 141.632 467.408, 296.700 468.591, 338.282 467.530 C 364.493 466.861, 368.324 466.559, 370.234 465.011 L 372.405 463.253 365.124 438.377 C 361.119 424.695, 356.865 410.350, 355.671 406.500 L 353.500 399.500 257.500 399.454 C 204.700 399.429, 160.387 399.672, 159.026 399.993 M 165.280 407.020 C 163.193 407.860, 161.120 412.453, 162.297 413.631 C 162.593 413.926, 164.740 414.424, 167.070 414.736 C 170.457 415.191, 171.574 414.935, 172.652 413.461 C 176.452 408.264, 171.954 404.334, 165.280 407.020 M 189.282 406.778 C 188.613 407.218, 187.938 409.135, 187.782 411.039 L 187.500 414.500 192.218 414.803 C 196.516 415.080, 196.990 414.887, 197.556 412.633 C 198.681 408.152, 197.772 406.522, 193.992 406.239 C 192.071 406.095, 189.952 406.338, 189.282 406.778 M 212.792 407.250 C 210.420 409.115, 209.714 412.517, 211.408 413.923 C 212.207 414.586, 214.565 414.988, 216.648 414.815 C 219.982 414.538, 220.551 414.100, 221.388 411.164 C 222.122 408.587, 222.016 407.623, 220.919 406.929 C 218.869 405.631, 214.639 405.798, 212.792 407.250 M 235.091 407.390 C 234.412 408.209, 234.001 410.144, 234.178 411.690 C 234.474 414.276, 234.876 414.524, 239.218 414.803 C 243.516 415.080, 243.990 414.887, 244.556 412.633 C 245.731 407.953, 244.808 406.524, 240.405 406.200 C 237.712 406.003, 235.907 406.407, 235.091 407.390 M 258.200 407.200 C 257.540 407.860, 257 409.651, 257 411.181 C 257 414.257, 259.436 415.422, 264.629 414.828 C 267.083 414.548, 267.547 414.007, 267.824 411.105 C 268.019 409.063, 267.621 407.375, 266.824 406.870 C 264.858 405.624, 259.574 405.826, 258.200 407.200 M 280.429 408.428 C 280.094 409.763, 280.115 411.788, 280.477 412.928 C 281.023 414.646, 281.957 415, 285.954 415 C 290.622 415, 290.789 414.898, 291.269 411.750 C 291.941 407.352, 290.560 406, 285.397 406 C 281.616 406, 280.957 406.322, 280.429 408.428 M 304.187 410.250 L 304.500 413.500 311.875 413.796 C 318.347 414.056, 319.173 413.893, 318.625 412.465 C 318.281 411.569, 318 409.973, 318 408.918 C 318 407.208, 317.233 407, 310.937 407 L 303.873 407 304.187 410.250 M 333.693 407.700 C 332.338 408.051, 331.963 408.961, 332.193 411.334 L 332.500 414.500 339.250 414.796 L 346 415.091 346 411.653 C 346 409.440, 345.436 407.998, 344.418 407.607 C 342.650 406.928, 336.464 406.982, 333.693 407.700 M 158.526 423.950 C 155.891 429.045, 156.420 430, 161.878 430 C 166.937 430, 168.245 429.162, 169.485 425.125 C 170.393 422.168, 168.821 421.036, 163.776 421.015 C 160.656 421.002, 159.804 421.479, 158.526 423.950 M 181.997 423.507 C 179.907 429.005, 181.109 431, 186.510 431 C 189.922 431, 192.162 428.302, 191.804 424.625 C 191.521 421.720, 191.201 421.478, 187.247 421.192 C 183.448 420.918, 182.888 421.165, 181.997 423.507 M 205.853 421.626 C 204.109 422.135, 202.673 428.847, 203.995 430.314 C 204.398 430.762, 206.702 430.987, 209.114 430.814 C 213.263 430.517, 213.550 430.298, 214.424 426.758 C 214.933 424.700, 215.101 422.768, 214.798 422.465 C 213.987 421.653, 207.759 421.069, 205.853 421.626 M 229.283 421.727 C 227.662 422.022, 226.889 423.074, 226.408 425.640 C 225.562 430.150, 226.714 431.201, 232.082 430.814 C 236.047 430.528, 236.520 430.206, 237.375 427.207 C 237.936 425.238, 237.949 423.581, 237.407 423.086 C 236.156 421.945, 231.952 421.241, 229.283 421.727 M 251.250 422.007 C 249.539 422.713, 249 423.751, 249 426.340 C 249 429.527, 249.250 429.784, 252.921 430.371 C 258.666 431.290, 260 430.446, 260 425.893 C 260 423.453, 259.534 421.995, 258.750 421.986 C 258.063 421.979, 256.600 421.771, 255.500 421.526 C 254.400 421.280, 252.488 421.496, 251.250 422.007 M 274.250 421.685 C 272.388 422.061, 272 422.799, 272 425.963 C 272 429.987, 273.106 431, 277.500 431 C 281.914 431, 283 429.992, 283 425.893 C 283 423.453, 282.534 421.995, 281.750 421.986 C 281.063 421.979, 279.600 421.806, 278.500 421.602 C 277.400 421.398, 275.488 421.436, 274.250 421.685 M 297.750 421.645 C 296.476 422.010, 296 423.186, 296 425.966 C 296 430.356, 296.982 431, 303.670 431 L 308.176 431 307.474 426.750 C 307.087 424.413, 306.654 422.368, 306.510 422.207 C 305.956 421.588, 299.415 421.169, 297.750 421.645 M 153.979 438.040 C 151.794 442.121, 153.277 443, 162.346 443 C 171.204 443, 173.522 441.960, 172.821 438.298 C 172.527 436.759, 171.225 436.458, 163.794 436.212 C 155.821 435.947, 155.019 436.097, 153.979 438.040 M 327.485 437.024 C 327.137 437.588, 327.146 439.388, 327.505 441.024 C 328.140 443.913, 328.330 444, 334.030 444 C 338.386 444, 340.133 443.585, 340.801 442.391 C 341.629 440.911, 341.752 440.911, 342.320 442.391 C 342.791 443.619, 344.339 444, 348.862 444 L 354.787 444 353.772 440 L 352.757 436 340.437 436 C 333.108 436, 327.862 436.415, 327.485 437.024 M 188.580 438.195 C 187.511 441.690, 185 453.093, 185 454.456 C 185 455.638, 186.148 456, 189.900 456 L 194.799 456 196.468 448.250 C 198.939 436.779, 199.127 437.540, 193.740 437.195 C 190.479 436.986, 188.854 437.301, 188.580 438.195 M 213.215 437.846 C 212.508 438.295, 211.661 440.313, 211.334 442.331 L 210.738 446 216.253 446 C 222.128 446, 222.950 445.175, 222.986 439.250 C 222.998 437.265, 222.499 437.002, 218.750 437.015 C 216.412 437.024, 213.922 437.398, 213.215 437.846 M 236.035 438.934 C 235.466 439.998, 235 442.023, 235 443.434 C 235 445.871, 235.271 446, 240.389 446 C 245.760 446, 245.779 445.989, 246.437 442.483 C 247.324 437.754, 246.642 437, 241.476 437 C 238.144 437, 236.818 437.471, 236.035 438.934 M 259.712 437.622 C 259.320 438.013, 259 440.058, 259 442.167 L 259 446 264.481 446 C 269.446 446, 270.019 445.772, 270.570 443.579 C 271.798 438.683, 270.866 437.523, 265.452 437.205 C 262.686 437.043, 260.103 437.230, 259.712 437.622 M 283.394 438.416 C 283.095 439.194, 282.997 441.107, 283.175 442.666 C 283.485 445.371, 283.762 445.514, 289.250 445.800 C 294.673 446.083, 294.999 445.969, 294.986 443.800 C 294.952 437.972, 294.075 437, 288.852 437 C 285.536 437, 283.761 437.461, 283.394 438.416 M 307 449.800 C 307 454.243, 308.410 456.005, 311.950 455.986 C 316.943 455.960, 319 454.889, 319 452.318 C 319 447.485, 317.346 446, 311.965 446 L 307 446 307 449.800 M 150.557 450.223 C 149.701 451.445, 149 453.245, 149 454.223 C 149 455.826, 150.163 456, 160.893 456 C 173.686 456, 174 455.866, 174 450.418 C 174 448.008, 173.964 448, 163.057 448 C 152.882 448, 152.004 448.156, 150.557 450.223 M 329.189 449.750 C 329.486 451.296, 331.090 451.533, 342.962 451.780 C 357.605 452.086, 359.261 451.845, 358.376 449.538 C 357.883 448.252, 355.414 448, 343.320 448 C 330.081 448, 328.882 448.149, 329.189 449.750 M 332.250 454.662 C 330.909 455.203, 330.655 458.111, 331.630 461.750 C 332.169 463.760, 332.861 464, 338.117 464 C 344.694 464, 345.057 463.466, 342.551 457.468 C 341.247 454.346, 340.723 454.008, 337.301 454.079 C 335.210 454.122, 332.938 454.385, 332.250 454.662 M 348.753 454.649 C 348.484 455.117, 348.779 457.300, 349.409 459.500 C 350.523 463.392, 350.685 463.508, 355.417 463.810 C 361.535 464.201, 362.565 463.243, 361.030 458.592 C 360.127 455.856, 359.298 455, 357.547 455 C 356.284 455, 353.898 454.730, 352.246 454.399 C 350.594 454.069, 349.022 454.181, 348.753 454.649" stroke="none" fill="black" fill-rule="evenodd"></path>
</svg><style>@media (prefers-color-scheme: light) { :root { filter: none; } }
</style></svg>